<svg xmlns="http://www.w3.org/2000/svg" xmlns:xlink="http://www.w3.org/1999/xlink" width="24" height="24">
  <defs>
    <g id="icon-addScreen">
      <path fill="none" d="M0 0h24v24H0V0z"/>
      <path d="M21 3H3c-1.11 0-2 .89-2 2v12c0 1.1.89 2 2 2h5v2h8v-2h5c1.1 0 1.99-.9 1.99-2L23 5c0-1.11-.9-2-2-2zm0 14H3V5h18v12zm-5-7v2h-3v3h-2v-3H8v-2h3V7h2v3h3z"/>
    </g>

    <g id="icon-delete">
      <path d="M6 19c0 1.1.9 2 2 2h8c1.1 0 2-.9 2-2V7H6v12zM19 4h-3.5l-1-1h-5l-1 1H5v2h14V4z"/>
      <path d="M0 0h24v24H0z" fill="none"/>
    </g>

    <g id="icon-view">
      <path d="M4 18h17v-6H4v6zM4 5v6h17V5H4z"/>
      <path d="M0 0h24v24H0z" fill="none"/>
    </g>

    <g id="icon-view_day">
      <path d="M0 0h24v24H0z" fill="none" />
      <path d="M2 21h19v-3H2v3zM20 8H3c-.55 0-1 .45-1 1v6c0 .55.45 1 1 1h17c.55 0 1-.45 1-1V9c0-.55-.45-1-1-1zM2 3v3h19V3H2z" />
    </g>

    <g id="icon-dashboard">
      <path d="M0 0h24v24H0z" fill="none"/>
      <path d="M3 13h8V3H3v10zm0 8h8v-6H3v6zm10 0h8V11h-8v10zm0-18v6h8V3h-8z"/>
    </g>

    <g id="icon-save">
      <path d="M0 0h24v24H0z" fill="none"/>
      <path d="M17 3H5a2 2 0 0 0-2 2v14a2 2 0 0 0 2 2h14c1.1 0 2-.9 2-2V7l-4-4zm-5 16c-1.66 0-3-1.34-3-3s1.34-3 3-3 3 1.34 3 3-1.34 3-3 3zm3-10H5V5h10v4z"/>
    </g>

    <g id="icon-align_left">
      <!-- <path d="M15 15H3v2h12v-2zm0-8H3v2h12V7zM3 13h18v-2H3v2zm0 8h18v-2H3v2zM3 3v2h18V3H3z" />
      <path d="M0 0h24v24H0z" fill="none"/> -->
      <g fill="none" fill-rule="evenodd">
        <path d="M0 0h24v24H0z"/>
        <path d="M.5 0v24" stroke="#444"/>
        <rect stroke="#444" x="2.5" y="6.5" width="21" height="11" rx="2"/>
      </g>
    </g>

    <g id="icon-align_center">
      <!-- <path d="M7 15v2h10v-2H7zm-4 6h18v-2H3v2zm0-8h18v-2H3v2zm4-6v2h10V7H7zM3 3v2h18V3H3z" />
      <path d="M0 0h24v24H0z" fill="none"/> -->
      <g transform="translate(-1)" fill="none" fill-rule="evenodd">
        <path d="M0 0h24v24H0z" fill="none"/>
        <path d="M12.5 0v24" stroke="#444903" fill="none"/>
        <rect stroke="#444" x="1.5" y="6.5" width="21" height="11" rx="2" fill="none"/>
      </g>
    </g>

    <g id="icon-align_right">
      <!-- <path d="M3 21h18v-2H3v2zm6-4h12v-2H9v2zm-6-4h18v-2H3v2zm6-4h12V7H9v2zM3 3v2h18V3H3z" />
      <path d="M0 0h24v24H0z" fill="none"/> -->
      <g transform="matrix(-1 0 0 1 24 0)" fill="none" fill-rule="evenodd">
        <path d="M0 0h24v24H0z"/>
        <path d="M.5 0v24" stroke="#444"/>
        <rect stroke="#444" x="2.5" y="6.5" width="21" height="11" rx="2"/>
      </g>
    </g>

    <g id="icon-align_justify">
      <!-- <path d="M3 21h18v-2H3v2zm0-4h18v-2H3v2zm0-4h18v-2H3v2zm0-4h18V7H3v2zm0-6v2h18V3H3z" />
      <path d="M0 0h24v24H0z" fill="none"/> -->
      <g transform="matrix(-1 0 0 1 24 0)" fill="none" fill-rule="evenodd">
        <path d="M0 0h24v24H0z"/>
        <path d="M.5 0v24M23.5 0v24" stroke="#444"/>
        <rect stroke="#444" transform="rotate(-90 12 12)" x="1.5" y="6.5" width="21" height="11" rx="2"/>
      </g>
    </g>

    <g id="icon-addCircle">
      <path d="M0 0h24v24H0z" fill="none"/>
      <path d="M13 7h-2v4H7v2h4v4h2v-4h4v-2h-4V7zm-1-5C6.48 2 2 6.48 2 12s4.48 10 10 10 10-4.48 10-10S17.52 2 12 2zm0 18c-4.41 0-8-3.59-8-8s3.59-8 8-8 8 3.59 8 8-3.59 8-8 8z"/>
    </g>

    <g id="icon-add">
      <path d="M19 13h-6v6h-2v-6H5v-2h6V5h2v6h6v2z"/><path d="M0 0h24v24H0z" fill="none"/>
    </g>

    <g id="icon-close">
      <path d="M19 6.41L17.59 5 12 10.59 6.41 5 5 6.41 10.59 12 5 17.59 6.41 19 12 13.41 17.59 19 19 17.59 13.41 12z"/>
      <path d="M0 0h24v24H0z" fill="none"/>
    </g>

    <g id="icon-arrow_up">
        <path d="M7.41 15.41L12 10.83l4.59 4.58L18 14l-6-6-6 6z" />
        <path d="M0 0h24v24H0z" fill="none"/>
    </g>

    <g id="icon-arrow_down">
      <path d="M7.41 8.59L12 13.17l4.59-4.58L18 10l-6 6-6-6 1.41-1.41z" />
      <path fill="none" d="M0 0h24v24H0V0z"/>
    </g>

    <g id="icon-computer">
      <path d="M0 0h24v24H0z" fill="none"/>
      <path d="M20 18c1.1 0 1.99-.9 1.99-2L22 6c0-1.1-.9-2-2-2H4c-1.1 0-2 .9-2 2v10c0 1.1.9 2 2 2H0v2h24v-2h-4zM4 6h16v10H4V6z"/>
    </g>

    <g id="icon-table">
      <path d="M18.5 0h-14A2.5 2.5 0 0 0 2 2.5v19A2.5 2.5 0 0 0 4.5 24h14a2.5 2.5 0 0 0 2.5-2.5v-19A2.5 2.5 0 0 0 18.5 0zm-7 23c-.83 0-1.5-.67-1.5-1.5s.67-1.5 1.5-1.5 1.5.67 1.5 1.5-.67 1.5-1.5 1.5zm7.5-4H4V3h15v16z"/>
    </g>

    <g id="icon-phone">
      <path d="M15.5 1h-8A2.5 2.5 0 0 0 5 3.5v17A2.5 2.5 0 0 0 7.5 23h8a2.5 2.5 0 0 0 2.5-2.5v-17A2.5 2.5 0 0 0 15.5 1zm-4 21c-.83 0-1.5-.67-1.5-1.5s.67-1.5 1.5-1.5 1.5.67 1.5 1.5-.67 1.5-1.5 1.5zm4.5-4H7V4h9v14z"/>
      <path d="M0 0h24v24H0z" fill="none"/>
    </g>

    <g id="icon-edit">
      <path d="M3 17.25V21h3.75L17.81 9.94l-3.75-3.75L3 17.25zM20.71 7.04a.996.996 0 0 0 0-1.41l-2.34-2.34a.996.996 0 0 0-1.41 0l-1.83 1.83 3.75 3.75 1.83-1.83z"/>
      <path d="M0 0h24v24H0z" fill="none"/>
    </g>

    <g id="icon-undo">
      <path d="M0 0h24v24H0z" fill="none"/>
      <path d="M12.5 8c-2.65 0-5.05.99-6.9 2.6L2 7v9h9l-3.62-3.62c1.39-1.16 3.16-1.88 5.12-1.88 3.54 0 6.55 2.31 7.6 5.5l2.37-.78C21.08 11.03 17.15 8 12.5 8z"/>
    </g>

    <g id="icon-redo">
      <path d="M0 0h24v24H0z" fill="none"/>
      <path d="M18.4 10.6C16.55 8.99 14.15 8 11.5 8c-4.65 0-8.58 3.03-9.96 7.22L3.9 16a8.002 8.002 0 0 1 7.6-5.5c1.95 0 3.73.72 5.12 1.88L13 16h9V7l-3.6 3.6z"/>
    </g>

    <g id="icon-link">
      <path d="M3.9 12c0-1.71 1.39-3.1 3.1-3.1h4V7H7c-2.76 0-5 2.24-5 5s2.24 5 5 5h4v-1.9H7c-1.71 0-3.1-1.39-3.1-3.1zM8 13h8v-2H8v2zm9-6h-4v1.9h4c1.71 0 3.1 1.39 3.1 3.1s-1.39 3.1-3.1 3.1h-4V17h4c2.76 0 5-2.24 5-5s-2.24-5-5-5z"/>
    </g>

    <g id="icon-page">
      <path d="M6 2c-1.1 0-1.99.9-1.99 2L4 20c0 1.1.89 2 1.99 2H18c1.1 0 2-.9 2-2V8l-6-6H6zm7 7V3.5L18.5 9H13z"/>
      <path d="M0 0h24v24H0z" fill="none"/>
    </g>

    <g id="icon-cart">
      <path d="M7 18c-1.1 0-1.99.9-1.99 2S5.9 22 7 22s2-.9 2-2-.9-2-2-2zM1 2v2h2l3.6 7.59-1.35 2.45c-.16.28-.25.61-.25.96 0 1.1.9 2 2 2h12v-2H7.42c-.14 0-.25-.11-.25-.25l.03-.12.9-1.63h7.45c.75 0 1.41-.41 1.75-1.03l3.58-6.49A1.003 1.003 0 0 0 20 4H5.21l-.94-2H1zm16 16c-1.1 0-1.99.9-1.99 2s.89 2 1.99 2 2-.9 2-2-.9-2-2-2z"/>
      <path d="M0 0h24v24H0z" fill="none"/>
    </g>

    <g id="icon-menu">
      <path d="M0 0h24v24H0z" fill="none"/><path d="M3 18h18v-2H3v2zm0-5h18v-2H3v2zm0-7v2h18V6H3z"/>
    </g>

    <g id="icon-card">
      <path d="M20 4H4c-1.11 0-1.99.89-1.99 2L2 18c0 1.11.89 2 2 2h16c1.11 0 2-.89 2-2V6c0-1.11-.89-2-2-2zm0 14H4v-6h16v6zm0-10H4V6h16v2z"/>
    </g>

    <g id="icon-cloud-upload">
      <path d="M0 0h24v24H0z" fill="none"/>
      <path d="M19.35 10.04A7.49 7.49 0 0 0 12 4C9.11 4 6.6 5.64 5.35 8.04A5.994 5.994 0 0 0 0 14c0 3.31 2.69 6 6 6h13c2.76 0 5-2.24 5-5 0-2.64-2.05-4.78-4.65-4.96zM14 13v4h-4v-4H7l5-5 5 5h-3z"/>
    </g>

    <g id="icon-chat">
      <path fill="none" d="M0 0h24v24H0V0z"/><path d="M20 2H4c-1.1 0-2 .9-2 2v18l4-4h14c1.1 0 2-.9 2-2V4c0-1.1-.9-2-2-2zm0 14H6l-2 2V4h16v12z"/>
    </g>

    <g id="icon-notification">
      <path d="M12 22c1.1 0 2-.9 2-2h-4a2 2 0 0 0 2 2zm6-6v-5c0-3.07-1.64-5.64-4.5-6.32V4c0-.83-.67-1.5-1.5-1.5s-1.5.67-1.5 1.5v.68C7.63 5.36 6 7.92 6 11v5l-2 2v1h16v-1l-2-2z"/>
    </g>

    <g id="icon-expand">
      <path d="M12 8l-6 6 1.41 1.41L12 10.83l4.59 4.58L18 14z"/>
      <path d="M0 0h24v24H0z" fill="none"/>
    </g>

    <g id="icon-dashboard">
      <path d="M0 0h24v24H0z" fill="none"/>
      <path d="M3 13h8V3H3v10zm0 8h8v-6H3v6zm10 0h8V11h-8v10zm0-18v6h8V3h-8z"/>
    </g>

    <g id="icon-person">
      <path d="M12 12c2.21 0 4-1.79 4-4s-1.79-4-4-4-4 1.79-4 4 1.79 4 4 4zm0 2c-2.67 0-8 1.34-8 4v2h16v-2c0-2.66-5.33-4-8-4z"/>
      <path d="M0 0h24v24H0z" fill="none"/>
    </g>

    <g id="icon-help">
      <path d="M0 0h24v24H0z" fill="none"/>
      <path d="M12 2C6.48 2 2 6.48 2 12s4.48 10 10 10 10-4.48 10-10S17.52 2 12 2zm1 17h-2v-2h2v2zm2.07-7.75l-.9.92C13.45 12.9 13 13.5 13 15h-2v-.5c0-1.1.45-2.1 1.17-2.83l1.24-1.26c.37-.36.59-.86.59-1.41 0-1.1-.9-2-2-2s-2 .9-2 2H8c0-2.21 1.79-4 4-4s4 1.79 4 4c0 .88-.36 1.68-.93 2.25z"/>
    </g>

    <g id="icon-folder-open">
      <path d="M0 0h24v24H0z" fill="none"/>
      <path d="M20 6h-8l-2-2H4c-1.1 0-1.99.9-1.99 2L2 18c0 1.1.9 2 2 2h16c1.1 0 2-.9 2-2V8c0-1.1-.9-2-2-2zm0 12H4V8h16v10z"/>
    </g>

    <g id="icon-drag-indicator">
      <path fill="none" d="M0 0h24v24H0V0z"/>
      <path d="M11 18c0 1.1-.9 2-2 2s-2-.9-2-2 .9-2 2-2 2 .9 2 2zm-2-8c-1.1 0-2 .9-2 2s.9 2 2 2 2-.9 2-2-.9-2-2-2zm0-6c-1.1 0-2 .9-2 2s.9 2 2 2 2-.9 2-2-.9-2-2-2zm6 4c1.1 0 2-.9 2-2s-.9-2-2-2-2 .9-2 2 .9 2 2 2zm0 2c-1.1 0-2 .9-2 2s.9 2 2 2 2-.9 2-2-.9-2-2-2zm0 6c-1.1 0-2 .9-2 2s.9 2 2 2 2-.9 2-2-.9-2-2-2z"/>
    </g>

    <g id="icon-brush">
      <path d="M0 0h24v24H0z" fill="none"/>
      <path d="M7 14c-1.66 0-3 1.34-3 3 0 1.31-1.16 2-2 2 .92 1.22 2.49 2 4 2 2.21 0 4-1.79 4-4 0-1.66-1.34-3-3-3zm13.71-9.37l-1.34-1.34a.996.996 0 0 0-1.41 0L9 12.25 11.75 15l8.96-8.96a.996.996 0 0 0 0-1.41z"/>
    </g>

    <g id="icon-edit">
      <path d="M3 17.25V21h3.75L17.81 9.94l-3.75-3.75L3 17.25zM20.71 7.04a.996.996 0 0 0 0-1.41l-2.34-2.34a.996.996 0 0 0-1.41 0l-1.83 1.83 3.75 3.75 1.83-1.83z"/>
      <path d="M0 0h24v24H0z" fill="none"/>
    </g>

    <g id="icon-screen-rotate">
      <path d="M0 0h24v24H0z" fill="none"/>
      <path d="M16.48 2.52c3.27 1.55 5.61 4.72 5.97 8.48h1.5C23.44 4.84 18.29 0 12 0l-.66.03 3.81 3.81 1.33-1.32zm-6.25-.77a1.49 1.49 0 0 0-2.12 0L1.75 8.11a1.49 1.49 0 0 0 0 2.12l12.02 12.02c.59.59 1.54.59 2.12 0l6.36-6.36c.59-.59.59-1.54 0-2.12L10.23 1.75zm4.6 19.44L2.81 9.17l6.36-6.36 12.02 12.02-6.36 6.36zm-7.31.29A10.487 10.487 0 0 1 1.55 13H.05C.56 19.16 5.71 24 12 24l.66-.03-3.81-3.81-1.33 1.32z"/>
    </g>

    <g id="icon-text-left">
      <g transform="translate(-3 -8)" fill="none" fill-rule="evenodd">
        <rect width="24" height="24" rx="3"/>
        <g stroke="#444" stroke-linecap="square">
          <path d="M4 8.5h16M4 12.5h8M4 16.5h12"/>
        </g>
      </g>
    </g>

    <g id="icon-text-center">
      <g transform="translate(-3 -8)" fill="none" fill-rule="evenodd">
        <rect width="24" height="24" rx="3"/>
        <g stroke="#444" stroke-linecap="square">
          <path d="M4 8.5h16M8 12.5h8M6 16.5h12"/>
        </g>
      </g>
    </g>

    <g id="icon-text-right">
      <g transform="translate(-3 -8)" fill="none" fill-rule="evenodd">
        <rect width="24" height="24" rx="3"/>
        <g stroke="#444" stroke-linecap="square">
          <path d="M4 8.5h16M12 12.5h8M8 16.5h12"/>
        </g>
      </g>
    </g>

    <g id="icon-arrow-drop-down">
      <path d="M7 10l5 5 5-5z"/><path d="M0 0h24v24H0z" fill="none"/>
    </g>

    <g id="icon-arrow-drop-up">
      <path d="M7 14l5-5 5 5z"/><path d="M0 0h24v24H0z" fill="none"/>
    </g>

    <g id="icon-arrow-drop-left">
      <path d="M14 7l-5 5 5 5V7z"/><path fill="none" d="M24 0v24H0V0h24z"/>
    </g>

    <g id="icon-arrow-drop-right">
      <path d="M10 17l5-5-5-5v10z"/><path fill="none" d="M0 24V0h24v24H0z"/>
    </g>

    <g id="icon-modal-icon-file_1">
      <path d="M16.667 14.238V6.862a.589.589 0 0 0-.17-.414L10.294.172A.575.575 0 0 0 9.884 0H2.13C.955 0 0 .967 0 2.155v15.69C0 19.033.955 20 2.13 20h12.407c1.174 0 2.13-.967 2.13-2.155v-3.607zM10.463 2l4.226 4.275h-3.254a.979.979 0 0 1-.972-.983V2.001zM2.13 1.17h7.175v4.122c0 1.188.955 2.155 2.13 2.155h4.073v5.375l-3.664-3.707a.576.576 0 0 0-.818 0l-3.623 3.665-2.692-2.723a.576.576 0 0 0-.82 0l-2.733 2.765V2.155c0-.542.436-.983.972-.983zm12.407 17.657H2.13a.979.979 0 0 1-.972-.983V14.48l3.143-3.18 2.692 2.724a.575.575 0 0 0 .82 0l3.622-3.665 4.073 4.121v3.365a.979.979 0 0 1-.971.983z"/>
      <path d="M5.417 7.5A2.086 2.086 0 0 0 7.5 5.417a2.086 2.086 0 0 0-2.083-2.084 2.086 2.086 0 0 0-2.084 2.084c0 1.148.935 2.083 2.084 2.083zm0-3.034a.951.951 0 0 1 0 1.901.951.951 0 0 1 0-1.9z"/>
    </g>

    <g id="icon-modal-icon-file_2">
      <path d="M16.667 14.238V6.862a.589.589 0 0 0-.17-.414L10.294.172A.575.575 0 0 0 9.884 0H2.13C.955 0 0 .967 0 2.155v15.69C0 19.033.955 20 2.13 20h12.407c1.174 0 2.13-.967 2.13-2.155v-3.607zM10.463 2l4.226 4.275h-3.254a.979.979 0 0 1-.972-.983V2.001zm5.045 10.822v5.05a.965.965 0 0 1-.971.955H2.13a.965.965 0 0 1-.972-.956V2.155c0-.542.436-.983.972-.983h7.175v4.121c0 1.188.955 2.155 2.13 2.155h4.073v5.375z"/>
    </g>

    <g id="icon-search">
      <path d="M15.5 14h-.79l-.28-.27A6.471 6.471 0 0 0 16 9.5 6.5 6.5 0 1 0 9.5 16c1.61 0 3.09-.59 4.23-1.57l.27.28v.79l5 4.99L20.49 19l-4.99-5zm-6 0C7.01 14 5 11.99 5 9.5S7.01 5 9.5 5 14 7.01 14 9.5 11.99 14 9.5 14z"/>
      <path d="M0 0h24v24H0z" fill="none"/>
    </g>

    <g id="icon-put-in">
      <path fill="none" d="M24 24H0V0h24v24z"/>
      <path d="M21 15h2v2h-2v-2zm0-4h2v2h-2v-2zm2 8h-2v2c1 0 2-1 2-2zM13 3h2v2h-2V3zm8 4h2v2h-2V7zm0-4v2h2c0-1-1-2-2-2zM1 7h2v2H1V7zm16-4h2v2h-2V3zm0 16h2v2h-2v-2zM3 3C2 3 1 4 1 5h2V3zm6 0h2v2H9V3zM5 3h2v2H5V3zm-4 8v8c0 1.1.9 2 2 2h12V11H1zm2 8l2.5-3.21 1.79 2.15 2.5-3.22L13 19H3z"/>
    </g>
  </defs>
</svg>
