<?xml version="1.0" encoding="iso-8859-1"?>
<!-- Generator: Adobe Illustrator 16.0.0, SVG Export Plug-In . SVG Version: 6.00 Build 0)  -->
<!DOCTYPE svg PUBLIC "-//W3C//DTD SVG 1.1//EN" "http://www.w3.org/Graphics/SVG/1.1/DTD/svg11.dtd">
<svg version="1.1" id="Capa_1" xmlns="http://www.w3.org/2000/svg" xmlns:xlink="http://www.w3.org/1999/xlink" x="0px" y="0px"
	 width="751.148px" height="751.148px" viewBox="0 0 751.148 751.148" style="enable-background:new 0 0 751.148 751.148;"
	 xml:space="preserve">
<g>
	<g id="Shape_13">
		<g>
			<path d="M84.959,497.126l-6.774,59.273l59.426-6.761l54.057-106.389L84.959,497.126z M322.108,497.126l-6.774,59.273
				l59.426-6.761l54.057-106.389L322.108,497.126z M552.497,556.399l59.427-6.761L665.98,443.25l-106.709,53.89L552.497,556.399z
				 M147.933,751.148l59.426-6.761l54.057-106.389l-106.709,53.876L147.933,751.148z M385.082,751.148l59.427-6.761l54.057-106.389
				l-106.709,53.89L385.082,751.148z M243.277,402.102h339.49c1.294,0,2.573-0.181,3.812-0.528
				c54.154-15.385,94.996-72.029,94.996-131.79c0-63.266-45.711-117.448-106.431-129.286c0.236-3.116,0.348-6.19,0.348-9.223
				C575.491,58.884,516.496,0,443.994,0c-49.369,0-93.285,26.723-115.932,69.303c-25.401-13.521-53.64-20.602-82.532-20.602
				c-97.027,0.014-175.956,79.305-175.956,176.763C69.574,322.867,147.488,402.102,243.277,402.102z M245.53,76.537
				c28.823,0,56.881,8.374,81.127,24.246c3.533,2.309,7.915,2.894,11.936,1.614c4.02-1.308,7.233-4.34,8.736-8.277
				c15.497-40.271,53.431-66.298,96.666-66.298c57.117,0,103.593,46.42,103.593,103.468c0,5.912-0.599,12.366-1.739,18.64
				c-0.695,3.853,0.278,7.846,2.685,10.961c2.393,3.116,6.01,5.063,9.933,5.384c53.389,4.271,95.219,49.744,95.219,103.523
				c0,47.116-31.229,91.658-72.92,104.497H243.291c-80.39,0-145.797-66.757-145.797-148.816
				C97.479,143.35,163.889,76.537,245.53,76.537z"/>
		</g>
	</g>
</g>
<g>
</g>
<g>
</g>
<g>
</g>
<g>
</g>
<g>
</g>
<g>
</g>
<g>
</g>
<g>
</g>
<g>
</g>
<g>
</g>
<g>
</g>
<g>
</g>
<g>
</g>
<g>
</g>
<g>
</g>
</svg>
