<?xml version="1.0" encoding="iso-8859-1"?>
<!-- Generator: Adobe Illustrator 19.0.0, SVG Export Plug-In . SVG Version: 6.00 Build 0)  -->
<svg version="1.1" id="Capa_1" xmlns="http://www.w3.org/2000/svg" xmlns:xlink="http://www.w3.org/1999/xlink" x="0px" y="0px"
	 viewBox="0 0 480.329 480.329" style="enable-background:new 0 0 480.329 480.329;" xml:space="preserve">
<g>
	<g>
		<path d="M400.083,256.17c44.183,0.136,80.11-35.57,80.246-79.753s-35.57-80.11-79.753-80.246
			c-3.63-0.011-7.257,0.225-10.854,0.707c-12.809-64.968-75.86-107.253-140.829-94.446c-29.642,5.843-55.985,22.661-73.762,47.09
			c-47.729-8.435-93.259,23.418-101.694,71.147c-0.471,2.667-0.819,5.354-1.042,8.053c-35.041-4.632-67.203,20.019-71.835,55.061
			s20.019,67.203,55.061,71.835c2.805,0.371,5.633,0.555,8.462,0.552h50.064l-48.976,84c-2.209,3.826-0.898,8.719,2.928,10.928
			c1.211,0.699,2.585,1.069,3.984,1.072h37.248l-20.912,69.704c-1.05,3.508,0.417,7.281,3.56,9.16
			c3.146,1.881,7.168,1.383,9.76-1.208l112-112c3.124-3.125,3.123-8.19-0.002-11.314c-1.5-1.499-3.534-2.342-5.654-2.342h-41.56
			l29.992-48h109.784l-57.16,100c-2.209,3.826-0.898,8.719,2.928,10.928c1.221,0.705,2.606,1.075,4.016,1.072h45.392l-29.088,101.8
			c-1.223,4.246,1.227,8.679,5.473,9.902c3.11,0.896,6.454-0.17,8.471-2.702l128-160c2.761-3.449,2.204-8.484-1.245-11.245
			c-1.42-1.137-3.184-1.756-5.003-1.755h-49.56l29.992-48H400.083z M145.299,307.93c-2.342,3.747-1.203,8.682,2.544,11.024
			c1.271,0.795,2.741,1.216,4.24,1.216h36.688l-75.888,75.904l14.88-49.6c1.272-4.231-1.126-8.693-5.357-9.965
			c-0.753-0.227-1.536-0.341-2.323-0.339H86.011l46.664-80h45.008L145.299,307.93z M64.083,240.17
			c-26.51,0.016-48.013-21.462-48.029-47.971c-0.016-26.51,21.462-48.013,47.971-48.029c4.699-0.003,9.374,0.685,13.874,2.04
			c4.231,1.274,8.693-1.122,9.967-5.353c0.247-0.822,0.361-1.678,0.337-2.535l-0.12-2.152
			c-0.142-39.623,31.863-71.859,71.486-72.001c5.811-0.021,11.604,0.664,17.25,2.041c3.266,0.781,6.672-0.561,8.528-3.36
			c31.607-47.901,96.061-61.109,143.962-29.502c25.365,16.737,42.132,43.738,45.886,73.894c0.544,4.385,4.539,7.498,8.924,6.954
			c0.3-0.037,0.598-0.091,0.892-0.162c34.317-8.467,69.001,12.488,77.468,46.805c8.467,34.317-12.488,69.001-46.805,77.468
			c-5.101,1.259-10.337,1.884-15.591,1.863H64.083z M337.299,307.93c-2.342,3.747-1.203,8.682,2.544,11.024
			c1.271,0.795,2.741,1.216,4.24,1.216h47.352l-92.72,115.904l21.064-73.704c1.215-4.248-1.244-8.677-5.492-9.892
			c-0.717-0.205-1.459-0.309-2.204-0.308h-42.208l54.848-96h44.96L337.299,307.93z"/>
	</g>
</g>
<g>
</g>
<g>
</g>
<g>
</g>
<g>
</g>
<g>
</g>
<g>
</g>
<g>
</g>
<g>
</g>
<g>
</g>
<g>
</g>
<g>
</g>
<g>
</g>
<g>
</g>
<g>
</g>
<g>
</g>
</svg>
