<?xml version="1.0" encoding="iso-8859-1"?>
<!-- Generator: Adobe Illustrator 19.0.0, SVG Export Plug-In . SVG Version: 6.00 Build 0)  -->
<svg version="1.1" id="Capa_1" xmlns="http://www.w3.org/2000/svg" xmlns:xlink="http://www.w3.org/1999/xlink" x="0px" y="0px"
	 viewBox="0 0 479.889 479.889" style="enable-background:new 0 0 479.889 479.889;" xml:space="preserve">
<g>
	<g>
		<path d="M397.696,184.187c1.42-7.986,2.138-16.081,2.144-24.192c0.054-73.162-57.782-133.256-130.892-136.004
			C193.89,21.17,130.757,79.73,127.936,154.787c-7.791-1.843-15.769-2.779-23.775-2.792C46.723,151.907,0.089,198.398,0,255.835
			c-0.089,57.438,46.402,104.072,103.84,104.16c4.418,0,8-3.582,8-8s-3.582-8-8-8c-48.601,0-88-39.399-88-88
			c0-48.601,39.399-88,88-88c10.034-0.036,19.998,1.672,29.448,5.048c1.085,0.39,2.241,0.542,3.39,0.444
			c4.402-0.376,7.666-4.249,7.29-8.652c-0.128-1.64-0.128-3.24-0.128-4.84c0-66.274,53.726-120,120-120s120,53.726,120,120
			c-0.016,10.161-1.279,20.282-3.76,30.136c-0.199,0.794-0.275,1.614-0.225,2.43c0.269,4.41,4.063,7.767,8.473,7.498
			c1.112-0.064,2.312-0.064,3.512-0.064c39.765,0,72,32.235,72,72c0,39.764-32.235,72-72,72c-4.418,0-8,3.582-8,8s3.582,8,8,8
			c46.364,0.024,84.793-35.928,87.854-82.19C482.903,229.31,446.191,187.396,397.696,184.187z"/>
	</g>
</g>
<g>
	<g>
		<path d="M271.645,377.121c-0.031-0.018-0.062-0.036-0.093-0.054l-15.712-9.072l15.712-9.072c3.826-2.209,5.137-7.102,2.928-10.928
			c-2.209-3.826-7.102-5.137-10.928-2.928l-15.712,9.072v-18.144c0-4.418-3.582-8-8-8s-8,3.582-8,8v18.144l-15.712-9.072
			c-3.841-2.183-8.725-0.84-10.908,3.002c-2.163,3.805-0.867,8.641,2.908,10.854l15.712,9.072l-15.712,9.072
			c-3.841,2.183-5.185,7.067-3.002,10.908c2.183,3.841,7.067,5.185,10.908,3.002c0.031-0.018,0.062-0.036,0.093-0.054l15.712-9.072
			v18.144c0,4.418,3.582,8,8,8s8-3.582,8-8v-18.144l15.712,9.072c3.811,2.235,8.713,0.957,10.948-2.854
			S275.456,379.356,271.645,377.121z"/>
	</g>
</g>
<g>
	<g>
		<path d="M191.645,425.121c-0.031-0.018-0.062-0.036-0.093-0.054l-15.712-9.072l15.712-9.072c3.826-2.209,5.137-7.102,2.928-10.928
			c-2.209-3.826-7.102-5.137-10.928-2.928l-15.712,9.072v-18.144c0-4.418-3.582-8-8-8s-8,3.582-8,8v18.144l-15.712-9.072
			c-3.841-2.183-8.725-0.84-10.908,3.002c-2.163,3.805-0.867,8.641,2.908,10.854l15.712,9.072l-15.712,9.072
			c-3.841,2.183-5.185,7.067-3.002,10.908c2.183,3.841,7.067,5.185,10.908,3.002c0.031-0.018,0.062-0.036,0.093-0.054l15.712-9.072
			v18.144c0,4.418,3.582,8,8,8s8-3.582,8-8v-18.144l15.712,9.072c3.811,2.235,8.713,0.957,10.948-2.854
			S195.456,427.356,191.645,425.121z"/>
	</g>
</g>
<g>
	<g>
		<path d="M191.645,329.121c-0.031-0.018-0.062-0.036-0.093-0.054l-15.712-9.072l15.712-9.072c3.826-2.209,5.137-7.102,2.928-10.928
			c-2.209-3.826-7.102-5.137-10.928-2.928l-15.712,9.072v-18.144c0-4.418-3.582-8-8-8s-8,3.582-8,8v18.144l-15.712-9.072
			c-3.841-2.183-8.725-0.84-10.908,3.002c-2.163,3.805-0.867,8.641,2.908,10.854l15.712,9.072l-15.712,9.072
			c-3.841,2.183-5.185,7.067-3.002,10.908c2.183,3.841,7.067,5.185,10.908,3.002c0.031-0.018,0.062-0.036,0.093-0.054l15.712-9.072
			v18.144c0,4.418,3.582,8,8,8s8-3.582,8-8v-18.144l15.712,9.072c3.811,2.235,8.713,0.957,10.948-2.854
			S195.456,331.356,191.645,329.121z"/>
	</g>
</g>
<g>
	<g>
		<path d="M351.645,425.121c-0.031-0.018-0.062-0.036-0.093-0.054l-15.712-9.072l15.712-9.072c3.826-2.209,5.137-7.102,2.928-10.928
			c-2.209-3.826-7.102-5.137-10.928-2.928l-15.712,9.072v-18.144c0-4.418-3.582-8-8-8s-8,3.582-8,8v18.144l-15.712-9.072
			c-3.841-2.183-8.725-0.84-10.908,3.002c-2.163,3.805-0.867,8.641,2.908,10.854l15.712,9.072l-15.712,9.072
			c-3.841,2.183-5.185,7.067-3.002,10.908c2.183,3.841,7.067,5.185,10.908,3.002c0.031-0.018,0.062-0.036,0.093-0.054l15.712-9.072
			v18.144c0,4.418,3.582,8,8,8s8-3.582,8-8v-18.144l15.712,9.072c3.811,2.235,8.713,0.957,10.948-2.854
			S355.456,427.356,351.645,425.121z"/>
	</g>
</g>
<g>
	<g>
		<path d="M351.645,329.121c-0.031-0.018-0.062-0.036-0.093-0.054l-15.712-9.072l15.712-9.072c3.811-2.235,5.089-7.136,2.854-10.948
			c-2.214-3.775-7.05-5.071-10.854-2.908l-15.712,9.072v-18.144c0-4.418-3.582-8-8-8s-8,3.582-8,8v18.144l-15.712-9.072
			c-3.841-2.183-8.725-0.84-10.908,3.002c-2.163,3.805-0.867,8.641,2.908,10.854l15.712,9.072l-15.712,9.072
			c-3.841,2.183-5.185,7.067-3.002,10.908c2.183,3.841,7.067,5.185,10.908,3.002c0.031-0.018,0.062-0.036,0.093-0.054l15.712-9.072
			v18.144c0,4.418,3.582,8,8,8s8-3.582,8-8v-18.144l15.712,9.072c3.811,2.235,8.713,0.957,10.948-2.854
			S355.456,331.356,351.645,329.121z"/>
	</g>
</g>
<g>
</g>
<g>
</g>
<g>
</g>
<g>
</g>
<g>
</g>
<g>
</g>
<g>
</g>
<g>
</g>
<g>
</g>
<g>
</g>
<g>
</g>
<g>
</g>
<g>
</g>
<g>
</g>
<g>
</g>
</svg>
