<svg height="480pt" viewBox="-16 0 480 480.00287" width="480pt" xmlns="http://www.w3.org/2000/svg"><path d="m89.589844 272.003906h268.992187c.40625 0 .800781-.058594 1.207031-.066406.105469 0 .191407.066406.296876.066406 48.601562 0 88-39.402344 88-88 0-48.601562-39.398438-88-88-88-.257813 0-.496094.039063-.746094.039063-.246094 0-.503906-.039063-.757813-.039063-5.695312-.003906-11.378906.535156-16.976562 1.597656-3.625-21.597656-23.847657-36.34375-45.519531-33.191406-9.441407-19.921875-29.578126-32.566406-51.625-32.40625-8.503907-.015625-16.902344 1.863282-24.589844 5.496094-16.960938-23.546875-44.207032-37.5-73.226563-37.49609375-48.992187-.35546825-89.027343 39.00781275-89.503906 87.99999975.011719 4.554688.390625 9.101563 1.136719 13.597656-40.539063 14.460938-64.609375 56.1875-56.832032 98.519532 7.78125 42.335937 45.113282 72.777344 88.144532 71.882812zm-19.90625-157.25c4.1875-1.152344 6.691406-5.433594 5.640625-9.648437-1.417969-5.589844-2.152344-11.335938-2.183594-17.101563.464844-40.160156 33.34375-72.367187 73.503906-72 23.769531.011719 46.089844 11.4375 60 30.710938l-3.742187 3.199218c-2.351563 1.804688-3.511719 4.757813-3.019532 7.675782.492188 2.921875 2.558594 5.332031 5.371094 6.265625 2.8125.929687 5.90625.234375 8.046875-1.8125l8.632813-7.425781c6.710937-4.335938 14.539062-6.632813 22.527344-6.613282 17.808593-.191406 33.660156 11.242188 39.097656 28.199219.640625 2.039063 2.078125 3.738281 3.980468 4.714844 1.90625.976562 4.121094 1.148437 6.15625.476562 2.519532-.878906 5.160157-1.351562 7.832032-1.390625 12.949218-.117187 23.714844 9.941406 24.476562 22.871094-32.640625 13.75-53.882812 45.707031-53.917968 81.128906 0 4.417969 3.582031 8 8 8 4.417968 0 8-3.582031 8-8 .050781-36.527344 27.421874-67.242187 63.703124-71.480468 1.265626-.121094 2.519532-.242188 3.785157-.289063 1.261719-.046875 2.496093-.183594 3.765625-.191406 39.765625.210937 71.832031 32.613281 71.621094 72.378906-.210938 39.765625-32.613282 71.832031-72.378907 71.621094h-268.992187c-36.484375.945312-67.875-25.628907-72.964844-61.765625-5.09375-36.140625 17.734375-70.351563 53.058594-79.523438zm0 0"/><path d="m199.171875 374.882812c6.25-8.128906 7.582031-19.015624 3.472656-28.410156l-19.199219-43.863281c-1.273437-2.910156-4.152343-4.789063-7.328124-4.789063-3.175782 0-6.054688 1.878907-7.328126 4.789063l-19.199218 43.863281c-4.105469 9.394532-2.777344 20.28125 3.472656 28.410156 5.535156 7.128907 14.058594 11.300782 23.085938 11.300782 9.03125 0 17.550781-4.171875 23.089843-11.300782zm-34.992187-21.992187 11.90625-27.144531 11.902343 27.144531c1.769531 4.050781 1.191407 8.742187-1.503906 12.246094-2.59375 3.054687-6.394531 4.8125-10.398437 4.8125-4.003907 0-7.808594-1.757813-10.402344-4.8125-2.691406-3.503907-3.269532-8.195313-1.503906-12.246094zm0 0"/><path d="m93.011719 376.371094c9.039062.050781 17.578125-4.132813 23.074219-11.304688 6.25-8.128906 7.585937-19.015625 3.488281-28.417968l-19.234375-43.847657c-1.273438-2.910156-4.148438-4.789062-7.328125-4.789062-3.175781 0-6.050781 1.878906-7.328125 4.789062l-19.199219 43.839844c-4.125 9.394531-2.796875 20.289063 3.464844 28.417969 5.496093 7.171875 14.03125 11.359375 23.0625 11.3125zm-11.902344-33.296875 11.902344-27.152344 11.875 27.152344c1.765625 4.054687 1.1875 8.746093-1.511719 12.25-2.585938 3.066406-6.390625 4.835937-10.402344 4.835937-4.007812 0-7.816406-1.769531-10.398437-4.835937-2.6875-3.511719-3.25-8.207031-1.464844-12.25zm0 0"/><path d="m157.683594 440.28125-19.199219-43.855469c-1.273437-2.910156-4.148437-4.789062-7.328125-4.789062-3.175781 0-6.050781 1.878906-7.328125 4.789062l-19.238281 43.855469c-4.101563 9.398438-2.765625 20.285156 3.488281 28.410156 5.535156 7.132813 14.054687 11.308594 23.082031 11.308594 9.03125 0 17.550782-4.175781 23.085938-11.308594 6.242187-8.132812 7.558594-19.019531 3.4375-28.410156zm-16.15625 18.671875c-2.585938 3.066406-6.390625 4.835937-10.402344 4.835937-4.007812 0-7.816406-1.769531-10.398438-4.835937-2.703124-3.496094-3.28125-8.1875-1.511718-12.238281l11.902344-27.152344 11.90625 27.160156c1.773437 4.039063 1.214843 8.726563-1.464844 12.230469zm0 0"/><path d="m378.246094 374.882812c6.253906-8.125 7.585937-19.015624 3.472656-28.410156l-19.203125-43.863281c-1.273437-2.910156-4.148437-4.789063-7.324219-4.789063-3.179687 0-6.054687 1.878907-7.328125 4.789063l-19.242187 43.863281c-4.101563 9.394532-2.765625 20.277344 3.488281 28.402344 5.535156 7.132812 14.054687 11.308594 23.085937 11.308594 9.027344 0 17.546876-4.175782 23.082032-11.308594zm-34.960938-21.992187 11.90625-27.144531 11.902344 27.152344c1.769531 4.050781 1.191406 8.746093-1.503906 12.246093-2.59375 3.054688-6.394532 4.8125-10.398438 4.8125-4.007812 0-7.808594-1.757812-10.402344-4.8125-2.699218-3.503906-3.277343-8.199219-1.503906-12.253906zm0 0"/><path d="m272.085938 376.371094c9.039062.050781 17.585937-4.132813 23.085937-11.304688 6.253906-8.128906 7.585937-19.019531 3.472656-28.417968l-19.199219-43.855469c-1.273437-2.910157-4.152343-4.789063-7.328124-4.789063-3.175782 0-6.054688 1.878906-7.328126 4.789063l-19.199218 43.855469c-4.113282 9.398437-2.78125 20.289062 3.472656 28.417968 5.488281 7.15625 14.003906 11.335938 23.023438 11.304688zm-11.90625-33.296875 11.90625-27.152344 11.902343 27.152344c1.773438 4.046875 1.195313 8.742187-1.503906 12.238281-2.582031 3.070312-6.386719 4.839844-10.398437 4.839844-4.011719 0-7.816407-1.769532-10.402344-4.839844-2.695313-3.496094-3.273438-8.191406-1.503906-12.238281zm0 0"/><path d="m310.230469 480.003906c9.039062.050782 17.578125-4.132812 23.078125-11.304687 6.257812-8.128907 7.589844-19.019531 3.480468-28.417969l-19.199218-43.855469c-1.273438-2.910156-4.152344-4.789062-7.328125-4.789062s-6.054688 1.878906-7.328125 4.789062l-19.238282 43.847657c-4.109374 9.398437-2.777343 20.289062 3.476563 28.417968 5.488281 7.175782 14.023437 11.363282 23.058594 11.3125zm-11.90625-33.296875 11.914062-27.152343 11.902344 27.152343c1.765625 4.050781 1.1875 8.738281-1.511719 12.238281-2.480468 3.222657-6.332031 5.097657-10.398437 5.058594-4.070313.042969-7.921875-1.832031-10.402344-5.058594-2.695313-3.5-3.273437-8.191406-1.503906-12.238281zm0 0"/><path d="m219.15625 480.003906c9.042969.054688 17.585938-4.128906 23.089844-11.304687 6.253906-8.128907 7.585937-19.019531 3.472656-28.417969l-19.203125-43.855469c-1.273437-2.910156-4.148437-4.789062-7.324219-4.789062-3.179687 0-6.054687 1.878906-7.328125 4.789062l-19.242187 43.855469c-4.101563 9.398438-2.765625 20.285156 3.488281 28.410156 5.484375 7.175782 14.015625 11.363282 23.046875 11.3125zm-11.871094-33.296875 11.90625-27.152343 11.902344 27.160156c1.769531 4.046875 1.191406 8.738281-1.503906 12.238281-2.585938 3.066406-6.390625 4.835937-10.398438 4.835937-4.011718 0-7.816406-1.769531-10.402344-4.835937-2.699218-3.5-3.277343-8.195313-1.503906-12.246094zm0 0"/><path d="m99.285156 147.515625c12.671875-12.078125 32.59375-12.078125 45.265625 0 12.5 12.496094 12.5 32.765625 0 45.261719-2.082031 2.007812-2.914062 4.984375-2.183593 7.78125.734374 2.796875 2.917968 4.980468 5.714843 5.714844 2.796875.730468 5.769531-.101563 7.78125-2.183594 18.746094-18.746094 18.746094-49.140625 0-67.886719-18.75-18.746094-49.144531-18.746094-67.890625 0-3.03125 3.136719-2.988281 8.128906.097656 11.214844 3.085938 3.085937 8.078126 3.128906 11.214844.097656zm0 0"/></svg>