<?xml version="1.0" encoding="iso-8859-1"?>
<!-- Generator: Adobe Illustrator 19.0.0, SVG Export Plug-In . SVG Version: 6.00 Build 0)  -->
<svg version="1.1" id="Capa_1" xmlns="http://www.w3.org/2000/svg" xmlns:xlink="http://www.w3.org/1999/xlink" x="0px" y="0px"
	 viewBox="0 0 512.002 512.002" style="enable-background:new 0 0 512.002 512.002;" xml:space="preserve">
<g>
	<g>
		<path d="M119.532,465.523c-3.816-1.608-8.215,0.185-9.822,4.002l-13.5,32.064c-1.607,3.817,0.184,8.215,4.002,9.822
			c0.95,0.4,1.937,0.59,2.907,0.59c2.927,0,5.708-1.725,6.916-4.592l13.5-32.064C125.141,471.528,123.35,467.131,119.532,465.523z"
			/>
	</g>
</g>
<g>
	<g>
		<path d="M146.471,401.545c-3.818-1.607-8.215,0.185-9.822,4.002l-13.438,31.915c-1.607,3.817,0.184,8.215,4.002,9.822
			c0.95,0.4,1.937,0.59,2.907,0.59c2.927,0,5.708-1.725,6.916-4.592l13.438-31.915C152.081,407.55,150.289,403.152,146.471,401.545z
			"/>
	</g>
</g>
<g>
	<g>
		<path d="M173.029,338.472c-3.819-1.608-8.216,0.185-9.823,4.002l-12.991,30.853c-1.608,3.818,0.183,8.215,4.001,9.822
			c0.951,0.4,1.937,0.59,2.907,0.59c2.927,0,5.708-1.725,6.916-4.592l12.991-30.853
			C178.638,344.477,176.846,340.079,173.029,338.472z"/>
	</g>
</g>
<g>
	<g>
		<path d="M175.071,465.523c-3.816-1.608-8.215,0.185-9.822,4.002l-13.5,32.064c-1.607,3.817,0.184,8.215,4.002,9.822
			c0.95,0.4,1.937,0.59,2.907,0.59c2.927,0,5.708-1.725,6.916-4.592l13.5-32.064C180.682,471.528,178.89,467.131,175.071,465.523z"
			/>
	</g>
</g>
<g>
	<g>
		<path d="M63.993,465.523c-3.819-1.608-8.216,0.185-9.823,4.002L40.67,501.59c-1.607,3.817,0.184,8.215,4.001,9.822
			c0.951,0.4,1.937,0.59,2.907,0.59c2.927,0,5.708-1.725,6.916-4.592l13.501-32.064C69.602,471.528,67.811,467.131,63.993,465.523z"
			/>
	</g>
</g>
<g>
	<g>
		<path d="M90.932,401.545c-3.817-1.607-8.215,0.185-9.822,4.002l-13.438,31.915c-1.607,3.817,0.184,8.215,4.002,9.822
			c0.95,0.4,1.937,0.59,2.907,0.59c2.927,0,5.708-1.725,6.916-4.592l13.438-31.915C96.54,407.55,94.75,403.152,90.932,401.545z"/>
	</g>
</g>
<g>
	<g>
		<path d="M117.49,338.472c-3.818-1.608-8.216,0.185-9.823,4.002l-12.991,30.853c-1.608,3.818,0.184,8.215,4.001,9.822
			c0.951,0.4,1.937,0.59,2.907,0.59c2.927,0,5.708-1.725,6.916-4.592l12.991-30.853C123.097,344.477,121.307,340.079,117.49,338.472
			z"/>
	</g>
</g>
<g>
	<g>
		<path d="M202.01,401.545c-3.818-1.607-8.215,0.185-9.822,4.002l-13.438,31.915c-1.607,3.817,0.184,8.215,4.002,9.822
			c0.95,0.4,1.937,0.59,2.907,0.59c2.927,0,5.708-1.725,6.916-4.592l13.438-31.915C207.62,407.55,205.828,403.152,202.01,401.545z"
			/>
	</g>
</g>
<g>
	<g>
		<path d="M228.568,338.472c-3.819-1.608-8.215,0.185-9.823,4.002l-12.991,30.853c-1.608,3.818,0.184,8.215,4.001,9.822
			c0.951,0.4,1.937,0.59,2.907,0.59c2.927,0,5.708-1.725,6.916-4.592l12.991-30.853
			C234.177,344.477,232.385,340.079,228.568,338.472z"/>
	</g>
</g>
<g>
	<g>
		<path d="M230.612,465.523c-3.817-1.608-8.215,0.185-9.822,4.002l-13.5,32.064c-1.607,3.817,0.184,8.215,4.002,9.822
			c0.95,0.4,1.937,0.59,2.907,0.59c2.927,0,5.708-1.725,6.916-4.592l13.5-32.064C236.221,471.528,234.43,467.131,230.612,465.523z"
			/>
	</g>
</g>
<g>
	<g>
		<path d="M257.55,401.545c-3.819-1.607-8.216,0.185-9.823,4.002l-13.438,31.915c-1.607,3.817,0.184,8.215,4.002,9.822
			c0.95,0.4,1.937,0.59,2.907,0.59c2.927,0,5.708-1.725,6.916-4.592l13.438-31.915C263.159,407.55,261.367,403.152,257.55,401.545z"
			/>
	</g>
</g>
<g>
	<g>
		<path d="M284.107,338.472c-3.814-1.607-8.215,0.184-9.822,4.002l-12.991,30.853c-1.607,3.818,0.184,8.215,4.002,9.822
			c0.95,0.4,1.937,0.59,2.907,0.59c2.927,0,5.708-1.725,6.915-4.592l12.991-30.853C289.716,344.477,287.925,340.079,284.107,338.472
			z"/>
	</g>
</g>
<g>
	<g>
		<path d="M286.151,465.523c-3.815-1.606-8.215,0.185-9.822,4.002l-13.501,32.064c-1.607,3.817,0.185,8.215,4.002,9.822
			c0.95,0.4,1.937,0.59,2.907,0.59c2.927,0,5.708-1.725,6.915-4.592l13.501-32.064C291.76,471.528,289.969,467.131,286.151,465.523z
			"/>
	</g>
</g>
<g>
	<g>
		<path d="M313.089,401.545c-3.814-1.606-8.214,0.185-9.822,4.002l-13.438,31.915c-1.607,3.817,0.185,8.215,4.002,9.822
			c0.95,0.4,1.937,0.59,2.907,0.59c2.927,0,5.708-1.725,6.915-4.592l13.438-31.915C318.698,407.55,316.906,403.152,313.089,401.545z
			"/>
	</g>
</g>
<g>
	<g>
		<path d="M339.646,338.472c-3.814-1.607-8.214,0.184-9.822,4.002l-12.99,30.853c-1.607,3.818,0.185,8.215,4.002,9.822
			c0.95,0.4,1.937,0.59,2.907,0.59c2.927,0,5.708-1.725,6.915-4.592l12.99-30.853C345.255,344.477,343.463,340.079,339.646,338.472z
			"/>
	</g>
</g>
<g>
	<g>
		<path d="M341.69,465.523c-3.814-1.606-8.215,0.185-9.822,4.002l-13.501,32.064c-1.607,3.817,0.185,8.215,4.002,9.822
			c0.95,0.4,1.937,0.59,2.907,0.59c2.927,0,5.708-1.725,6.915-4.592l13.501-32.064C347.3,471.528,345.508,467.131,341.69,465.523z"
			/>
	</g>
</g>
<g>
	<g>
		<path d="M368.628,401.545c-3.815-1.606-8.215,0.185-9.822,4.002l-13.438,31.915c-1.607,3.817,0.185,8.215,4.002,9.822
			c0.95,0.4,1.937,0.59,2.907,0.59c2.927,0,5.708-1.725,6.915-4.592l13.438-31.915C374.237,407.55,372.445,403.152,368.628,401.545z
			"/>
	</g>
</g>
<g>
	<g>
		<path d="M395.187,338.473c-3.813-1.607-8.215,0.184-9.822,4.002l-12.991,30.853c-1.607,3.817,0.184,8.215,4.002,9.822
			c0.95,0.4,1.937,0.59,2.907,0.59c2.927,0,5.708-1.725,6.915-4.592l12.991-30.853C400.796,344.478,399.005,340.08,395.187,338.473z
			"/>
	</g>
</g>
<g>
	<g>
		<path d="M414.883,112.433c0,0-0.349-1.845-0.554-3.207c-4.134-28.464-17.71-54.643-38.86-74.561
			C351.732,12.311,320.692,0,288.065,0c-35.87,0-69.939,15.085-94.159,41.538c-2.971-0.483-5.967-0.847-8.985-1.088
			c-0.009-0.001-0.018-0.002-0.028-0.002c-2.372-0.224-7.657-0.366-9.054-0.366c-48.613,0-91.79,31.852-106.4,77.951
			c-2.447,0.856-4.868,1.795-7.253,2.837c-0.264,0.115-0.515,0.247-0.758,0.388c-15.961,7.167-30.123,18.393-40.683,32.443
			C7.175,171.757,0.001,193.272,0.001,215.92c0,57.177,46.517,103.693,103.693,103.693h304.613
			C465.484,319.613,512,273.096,512,215.92C512.001,160.949,469.01,115.834,414.883,112.433z M408.309,304.613H103.695
			c-48.906,0-88.693-39.788-88.693-88.693c0-19.371,6.133-37.77,17.735-53.207c11.227-14.938,27.195-26.159,44.965-31.598
			c0.055-0.017,0.106-0.042,0.161-0.061c5.983-1.819,12.15-3.007,18.437-3.525c4.128-0.341,7.199-3.963,6.858-8.091
			c-0.341-4.128-3.967-7.201-8.091-6.858c-2.67,0.22-5.32,0.552-7.951,0.974c15.085-34.985,49.895-58.473,88.724-58.473
			c6.508,0,13.028,0.655,19.381,1.947c0.035,0.007,0.069,0.007,0.104,0.014c6.068,1.241,12.004,3.064,17.766,5.471
			c0.945,0.396,1.925,0.582,2.889,0.582c2.935,0,5.721-1.733,6.923-4.61c1.597-3.822-0.207-8.215-4.029-9.812
			c-2.638-1.102-5.308-2.097-8.006-2.988C231.706,26.057,259.229,15,288.065,15c59.11,0,108.462,46.227,112.355,105.239
			c0.029,0.443,0.304,12.535,0.14,15.026c-0.272,4.133,2.858,7.704,6.992,7.976c0.167,0.012,0.334,0.017,0.5,0.017
			c3.917,0,7.216-3.042,7.477-7.008c0.186-2.817,0.279-5.68,0.279-8.508c0-0.066-0.003-0.132-0.003-0.198
			c45.411,3.817,81.197,41.994,81.197,88.376C497.002,264.825,457.214,304.613,408.309,304.613z"/>
	</g>
</g>
<g>
	<g>
		<path d="M138.263,118.13c-2.838-1.003-5.749-1.89-8.651-2.637c-4.008-1.031-8.1,1.384-9.132,5.396
			c-1.032,4.012,1.384,8.1,5.396,9.132c2.478,0.638,4.965,1.396,7.391,2.252c0.827,0.292,1.669,0.431,2.499,0.431
			c3.09,0,5.984-1.925,7.072-5.004C144.216,123.794,142.169,119.51,138.263,118.13z"/>
	</g>
</g>
<g>
	<g>
		<path d="M403.966,160.75c-3.905-1.379-8.19,0.667-9.57,4.572c-1.22,3.451-2.628,6.886-4.185,10.208
			c-1.757,3.751-0.142,8.217,3.609,9.974c1.029,0.482,2.111,0.711,3.177,0.711c2.819,0,5.521-1.598,6.796-4.319
			c1.765-3.767,3.361-7.661,4.744-11.575C409.917,166.415,407.872,162.13,403.966,160.75z"/>
	</g>
</g>
<g>
</g>
<g>
</g>
<g>
</g>
<g>
</g>
<g>
</g>
<g>
</g>
<g>
</g>
<g>
</g>
<g>
</g>
<g>
</g>
<g>
</g>
<g>
</g>
<g>
</g>
<g>
</g>
<g>
</g>
</svg>
