<?xml version="1.0" encoding="iso-8859-1"?>
<!-- Generator: Adobe Illustrator 19.0.0, SVG Export Plug-In . SVG Version: 6.00 Build 0)  -->
<svg version="1.1" id="Capa_1" xmlns="http://www.w3.org/2000/svg" xmlns:xlink="http://www.w3.org/1999/xlink" x="0px" y="0px"
	 viewBox="0 0 512 512" style="enable-background:new 0 0 512 512;" xml:space="preserve">
<g>
	<g>
		<path d="M412.157,332.542C395.093,295.854,358.348,272,317,272c-10.765,0-21.321,1.603-31.392,4.683
			c1.222-4.935-0.078-10.366-3.935-14.223l-21.213-21.213c-5.857-5.858-15.355-5.858-21.213,0c-5.858,5.858-5.858,15.355,0,21.213
			l21.213,21.213c1,1,2.113,1.817,3.289,2.476c-27.044,15.482-48.263,43.102-52.834,77.198C176.272,369.958,150,400.46,150,437
			c0,41.355,33.645,75,75,75h197.173c0.04,0,0.08,0,0.12,0C471.786,511.843,512,471.53,512,422
			C512,369.064,466.066,326.723,412.157,332.542z M422,482H225c-24.813,0-45-20.187-45-45s20.187-45,45-45
			c7.915,0,15.691,2.079,22.489,6.011c7.172,4.149,16.347,1.697,20.495-5.474c4.148-7.171,1.697-16.347-5.474-20.495
			c-6.622-3.83-13.793-6.599-21.233-8.25C247.899,329.179,279.876,302,317,302c27.896,0,52.853,15.197,65.809,38.956
			c-5.17,2.511-10.13,5.523-14.817,9.044c-6.624,4.975-7.96,14.378-2.985,21.002c4.975,6.624,14.378,7.96,21.002,2.985
			C425.431,344.378,482,372.741,482,422C482,455.084,455.084,482,422,482z"/>
	</g>
</g>
<g>
	<g>
		<path d="M165,92c-41.355,0-75,33.645-75,75s33.645,75,75,75s75-33.645,75-75S206.355,92,165,92z M165,212
			c-24.813,0-45-20.187-45-45s20.187-45,45-45s45,20.187,45,45S189.813,212,165,212z"/>
	</g>
</g>
<g>
	<g>
		<path d="M165,0c-8.284,0-15,6.716-15,15v32c0,8.284,6.716,15,15,15s15-6.716,15-15V15C180,6.716,173.284,0,165,0z"/>
	</g>
</g>
<g>
	<g>
		<path d="M165,272c-8.284,0-15,6.716-15,15v30c0,8.284,6.716,15,15,15s15-6.716,15-15v-30C180,278.716,173.284,272,165,272z"/>
	</g>
</g>
<g>
	<g>
		<path d="M45,152H15c-8.284,0-15,6.716-15,15s6.716,15,15,15h30c8.284,0,15-6.716,15-15S53.284,152,45,152z"/>
	</g>
</g>
<g>
	<g>
		<path d="M315,152h-30c-8.284,0-15,6.716-15,15s6.716,15,15,15h30c8.284,0,15-6.716,15-15S323.284,152,315,152z"/>
	</g>
</g>
<g>
	<g>
		<path d="M90.754,241.246c-5.858-5.857-15.355-5.857-21.213,0l-21.213,21.213c-5.858,5.858-5.858,15.355,0,21.213
			c5.86,5.859,15.356,5.857,21.213,0l21.213-21.213C96.612,256.601,96.612,247.104,90.754,241.246z"/>
	</g>
</g>
<g>
	<g>
		<path d="M281.672,50.327c-5.857-5.858-15.355-5.858-21.213,0L239.246,71.54c-5.858,5.858-5.858,15.355,0,21.213
			c5.857,5.858,15.356,5.859,21.213,0l21.213-21.213C287.53,65.682,287.53,56.185,281.672,50.327z"/>
	</g>
</g>
<g>
	<g>
		<path d="M90.754,71.541L69.541,50.327c-5.857-5.857-15.355-5.858-21.213,0c-5.857,5.858-5.857,15.355,0,21.213l21.213,21.214
			c5.857,5.857,15.355,5.858,21.213,0C96.611,86.896,96.611,77.399,90.754,71.541z"/>
	</g>
</g>
<g>
</g>
<g>
</g>
<g>
</g>
<g>
</g>
<g>
</g>
<g>
</g>
<g>
</g>
<g>
</g>
<g>
</g>
<g>
</g>
<g>
</g>
<g>
</g>
<g>
</g>
<g>
</g>
<g>
</g>
</svg>
