<?xml version="1.0" encoding="iso-8859-1"?>
<!-- Generator: Adobe Illustrator 19.0.0, SVG Export Plug-In . SVG Version: 6.00 Build 0)  -->
<svg version="1.1" id="Capa_1" xmlns="http://www.w3.org/2000/svg" xmlns:xlink="http://www.w3.org/1999/xlink" x="0px" y="0px"
	 viewBox="0 0 512 512" style="enable-background:new 0 0 512 512;" xml:space="preserve">
<g>
	<g>
		<path d="M462.262,76.057c-11.974-19.301-33.113-31.302-56.355-31.302c-28.155,0-52.846,17.732-62.282,43.441
			c-20.452,5.614-35.216,24.21-35.216,46.414c0,26.55,21.601,48.151,48.151,48.151h102.025c29.453,0,53.415-23.962,53.415-53.415
			C512,101.129,490.008,77.951,462.262,76.057z M458.585,152.761H356.56c-10.009,0-18.151-8.143-18.151-18.151
			c0-9.852,7.706-17.819,17.543-18.139l12.012-0.39l2.239-11.808c3.243-17.104,18.259-29.519,35.704-29.519
			c14.702,0,27.87,8.766,33.548,22.332l4.455,10.646l11.432-1.577c1.077-0.149,2.169-0.224,3.244-0.224
			c12.911,0,23.415,10.504,23.415,23.415S471.496,152.761,458.585,152.761z"/>
	</g>
</g>
<g>
	<g>
		<path d="M427.312,256.179c-21.184,15.713-46.365,24.018-72.818,24.018c-67.482,0-122.384-54.901-122.384-122.383
			c0-30.675,11.403-60.02,32.11-82.627l26.106-28.504l-38.5,3.432c-46.071,4.107-88.751,25.186-120.175,59.354
			c-31.62,34.381-49.034,79.058-49.034,125.8c0,18.623,2.729,36.882,8.111,54.455c-18.717,11.206-33.231,28.958-40.1,50.451
			c-12.299,2.648-23.563,8.865-32.499,18.076C6.438,370.303,0,386.191,0,402.986c0,35.433,28.827,64.259,64.26,64.259h151.6
			c30.802,0,57.141-19.426,67.44-46.665c82.349-6.553,151.629-67.385,167.669-149.476l7.42-37.973L427.312,256.179z M215.86,437.245
			H64.26c-18.891,0-34.26-15.369-34.26-34.259c0-18.596,14.548-33.635,33.119-34.238l12.013-0.39l2.238-11.808
			c5.471-28.852,30.794-49.792,60.214-49.792c24.794,0,47,14.782,56.571,37.658l4.455,10.647l11.434-1.578
			c1.931-0.267,3.888-0.402,5.816-0.402c23.203,0,42.081,18.877,42.081,42.081C257.941,418.367,239.063,437.245,215.86,437.245z
			 M287.734,389.968c-2.646-36.931-33.219-66.258-70.669-66.875c-16.065-28.462-46.207-46.335-79.48-46.335
			c-6.434,0-12.733,0.681-18.83,1.965c-4.072-14.047-6.136-28.609-6.136-43.455c0-39.198,14.602-76.663,41.115-105.492
			c18.141-19.725,40.743-34.247,65.664-42.508c-11.284,21.583-17.287,45.715-17.287,70.545c0,84.024,68.359,152.383,152.384,152.383
			c19.492,0,38.43-3.623,56.115-10.638C388.426,348.527,341.872,383.248,287.734,389.968z"/>
	</g>
</g>
<g>
</g>
<g>
</g>
<g>
</g>
<g>
</g>
<g>
</g>
<g>
</g>
<g>
</g>
<g>
</g>
<g>
</g>
<g>
</g>
<g>
</g>
<g>
</g>
<g>
</g>
<g>
</g>
<g>
</g>
</svg>
