<?xml version="1.0" encoding="iso-8859-1"?>
<!-- Generator: Adobe Illustrator 22.1.0, SVG Export Plug-In . SVG Version: 6.00 Build 0)  -->
<svg xmlns="http://www.w3.org/2000/svg" xmlns:xlink="http://www.w3.org/1999/xlink" version="1.1" id="Layer_1_1_" x="0px" y="0px" viewBox="0 0 64 64" style="enable-background:new 0 0 64 64;" xml:space="preserve" width="512" height="512">
<g>
	<path d="M56,46.708c0-0.617-0.146-1.236-0.422-1.789L52,37.764l-3.578,7.155C48.146,45.472,48,46.091,48,46.708V47   c0,2.206,1.794,4,4,4s4-1.794,4-4V46.708z M54,47c0,1.103-0.897,2-2,2s-2-0.897-2-2v-0.292c0-0.309,0.073-0.618,0.211-0.895   L52,42.236l1.789,3.577C53.927,46.09,54,46.399,54,46.708V47z"/>
	<path d="M59,49.764l-3.578,7.155C55.146,57.472,55,58.091,55,58.708V59c0,2.206,1.794,4,4,4s4-1.794,4-4v-0.292   c0-0.617-0.146-1.236-0.422-1.789L59,49.764z M61,59c0,1.103-0.897,2-2,2s-2-0.897-2-2v-0.292c0-0.309,0.073-0.618,0.211-0.895   L59,54.236l1.789,3.577C60.927,58.09,61,58.399,61,58.708V59z"/>
	<path d="M33,43.764l-3.578,7.155C29.146,51.472,29,52.091,29,52.708V53c0,2.206,1.794,4,4,4s4-1.794,4-4v-0.292   c0-0.617-0.146-1.236-0.422-1.789L33,43.764z M35,53c0,1.103-0.897,2-2,2s-2-0.897-2-2v-0.292c0-0.309,0.073-0.618,0.211-0.895   L33,48.236l1.789,3.577C34.927,52.09,35,52.399,35,52.708V53z"/>
	<path d="M5,45.764l-3.578,7.155C1.146,53.472,1,54.091,1,54.708V55c0,2.206,1.794,4,4,4s4-1.794,4-4v-0.292   c0-0.617-0.146-1.236-0.422-1.789L5,45.764z M7,55c0,1.103-0.897,2-2,2s-2-0.897-2-2v-0.292c0-0.309,0.073-0.618,0.211-0.895   L5,50.236l1.789,3.577C6.927,54.09,7,54.399,7,54.708V55z"/>
	<path d="M18,49.764l-3.578,7.155C14.146,57.472,14,58.091,14,58.708V59c0,2.206,1.794,4,4,4s4-1.794,4-4v-0.292   c0-0.617-0.146-1.236-0.422-1.789L18,49.764z M20,59c0,1.103-0.897,2-2,2s-2-0.897-2-2v-0.292c0-0.309,0.073-0.618,0.211-0.895   L18,54.236l1.789,3.577C19.927,58.09,20,58.399,20,58.708V59z"/>
	<path d="M44.118,33H54c4.962,0,9-4.037,9-9s-4.038-9-9-9c-0.426,0-0.847,0.039-1.263,0.098C51.348,6.991,44.344,1,36,1   c-6.857,0-13.017,4.139-15.655,10.405C19.595,11.139,18.8,11,18,11c-2.772,0-5.269,1.672-6.381,4.154   C11.093,15.058,10.553,15,10,15c-4.962,0-9,4.037-9,9s4.038,9,9,9h0.882l-3.459,6.919C7.146,40.472,7,41.091,7,41.708V42   c0,2.206,1.794,4,4,4s4-1.794,4-4v-0.292c0-0.617-0.146-1.236-0.422-1.789L11.118,33h8.938l-2.4,8h4.125l-1.507,7.531   c-0.121,0.609,0.035,1.233,0.429,1.714C21.096,50.725,21.678,51,22.298,51c0.827,0,1.572-0.491,1.897-1.252L30.517,35h-4.129   l0.667-2h10.828l-0.459,0.919C37.146,34.472,37,35.091,37,35.708V36c0,2.206,1.794,4,4,4s4-1.794,4-4v-0.292   c0-0.617-0.146-1.236-0.422-1.789L44.118,33z M13,41.708V42c0,1.103-0.897,2-2,2s-2-0.897-2-2v-0.292   c0-0.309,0.073-0.618,0.211-0.895L11,37.236l1.789,3.577C12.927,41.09,13,41.399,13,41.708z M27.483,37l-5.126,11.961l-0.123-0.038   L24.22,39h-3.875l2.4-8h2.869l-2,6H27.483z M27.721,31l0.667-2h-7.131l-0.6,2H10c-3.86,0-7-3.141-7-7s3.14-7,7-7s7,3.141,7,7h2   c0-3.702-2.248-6.886-5.449-8.267C14.394,14.09,16.107,13,18,13c0.843,0,1.679,0.216,2.416,0.623l1.039,0.574l0.39-1.121   C23.941,7.05,29.63,3,36,3c7.416,0,13.629,5.362,14.792,12.591c-0.999,0.381-1.93,0.939-2.745,1.659l1.324,1.5   C50.648,17.621,52.292,17,54,17c3.86,0,7,3.141,7,7s-3.14,7-7,7H43.118L41,26.764L38.882,31H27.721z M43,36c0,1.103-0.897,2-2,2   s-2-0.897-2-2v-0.292c0-0.309,0.073-0.618,0.211-0.895L41,31.236l1.789,3.577C42.927,35.09,43,35.399,43,35.708V36z"/>
</g>
</svg>
