<?xml version="1.0" standalone="no"?>
<!DOCTYPE svg PUBLIC "-//W3C//DTD SVG 20010904//EN"
 "http://www.w3.org/TR/2001/REC-SVG-20010904/DTD/svg10.dtd">
<svg version="1.0" xmlns="http://www.w3.org/2000/svg"
 width="700.000000pt" height="700.000000pt" viewBox="0 0 700.000000 700.000000"
 preserveAspectRatio="xMidYMid meet">
<metadata>
Created by potrace 1.11, written by Peter Selinger 2001-2013
</metadata>
<g transform="translate(0.000000,700.000000) scale(0.100000,-0.100000)"
fill="#000000" stroke="none">
<path d="M3622 6343 c-45 -22 -74 -66 -74 -111 0 -20 14 -87 31 -148 16 -61
46 -173 66 -250 20 -76 42 -159 49 -183 12 -44 62 -97 96 -101 51 -7 83 2 117
34 31 28 37 41 39 78 2 42 -7 79 -91 393 -21 77 -42 158 -47 180 -5 22 -16 50
-24 62 -33 52 -107 73 -162 46z"/>
<path d="M4965 6322 c-45 -28 -48 -36 -125 -322 -23 -85 -50 -184 -60 -220
-11 -36 -21 -77 -24 -91 -6 -36 25 -101 59 -123 57 -37 143 -19 179 37 18 28
168 573 168 609 -2 99 -113 161 -197 110z"/>
<path d="M2449 5681 c-33 -13 -67 -48 -80 -84 -25 -69 -7 -94 238 -341 229
-230 245 -242 308 -230 42 8 64 22 85 57 25 40 26 104 3 137 -29 41 -426 436
-453 450 -27 15 -77 20 -101 11z"/>
<path d="M6150 5647 c-38 -18 -439 -417 -459 -457 -9 -19 -16 -44 -16 -55 3
-34 34 -89 61 -108 30 -22 91 -24 127 -5 29 14 416 395 448 440 26 36 25 101
-2 140 -36 51 -105 70 -159 45z"/>
<path d="M4258 5095 c-2 -2 -29 -6 -61 -9 -327 -32 -668 -221 -890 -493 -48
-59 -149 -215 -159 -245 -2 -6 -29 -3 -73 10 -303 88 -588 90 -890 5 -92 -25
-105 -30 -234 -90 -291 -133 -553 -382 -706 -668 -65 -122 -141 -336 -160
-452 -20 -124 -24 -177 -21 -330 l3 -173 -68 0 c-487 0 -909 -360 -986 -842
-10 -57 -10 -250 -1 -313 45 -311 253 -596 543 -743 63 -32 190 -76 246 -86
19 -4 52 -9 74 -13 52 -9 4011 -9 4090 0 181 20 399 101 555 207 273 185 451
441 536 771 24 92 28 123 28 274 1 214 -8 278 -66 447 -46 136 -125 277 -216
388 -61 74 -176 183 -234 223 -26 18 -48 36 -48 40 0 4 18 40 39 80 84 154
140 332 158 501 50 496 -162 969 -566 1257 -138 99 -371 203 -501 224 -19 3
-55 11 -80 16 -40 10 -304 21 -312 14z"/>
<path d="M6765 4460 c-33 -10 -145 -40 -250 -68 -224 -58 -257 -71 -282 -108
-22 -34 -24 -101 -3 -138 18 -34 76 -65 115 -62 17 2 102 22 190 45 88 23 203
53 255 67 52 14 112 32 133 41 95 41 95 190 0 229 -42 18 -84 16 -158 -6z"/>
<path d="M6291 3265 c-67 -22 -107 -103 -81 -164 23 -58 49 -72 210 -116 8 -3
65 -18 125 -34 61 -17 153 -42 205 -57 52 -15 110 -26 129 -26 70 3 131 83
117 155 -13 66 -52 91 -211 132 -97 25 -121 32 -270 74 -147 42 -188 49 -224
36z"/>
</g>
</svg>
